<?xml version="1.0" encoding="utf-8"?>
<!-- Generator: Adobe Illustrator 18.1.1, SVG Export Plug-In . SVG Version: 6.00 Build 0)  -->
<svg version="1.1" id="Layer_1" xmlns="http://www.w3.org/2000/svg" xmlns:xlink="http://www.w3.org/1999/xlink" x="0px" y="0px"
	 viewBox="0 0 328 200" enable-background="new 0 0 328 200" xml:space="preserve">
<g id="logo">
	<path fill-rule="evenodd" clip-rule="evenodd" fill="#3457A4" d="M59.3,61.3h-4.9c-6.5,1.2-11.5,6.9-11.5,13.7
		c0,7.7,6.2,13.9,13.9,13.9c7.7,0,13.9-6.2,13.9-13.9C70.7,68.1,65.8,62.4,59.3,61.3z"/>
	<path fill-rule="evenodd" clip-rule="evenodd" fill="#3457A4" d="M23.5,7.8h-4.9C12.1,9,7.2,14.7,7.2,21.5
		c0,7.7,6.2,13.9,13.9,13.9c7.7,0,13.9-6.2,13.9-13.9C35,14.7,30,9,23.5,7.8z"/>
	<path fill-rule="evenodd" clip-rule="evenodd" fill="#3457A4" d="M300,133.3c3.7-10.3,4.6-18,4.6-29.6c0-52.5-42-95.2-94.3-96.2
		c-0.2,0-0.4,0-0.6,0c-0.4,0-0.9,0-1.3,0H208H54.3c-5.9,0-10.7,4.8-10.7,10.7v6c0,5.9,4.8,10.7,10.7,10.7h60
		c5.9,0,10.7,4.8,10.7,10.7v6c0,5.9-4.8,10.7-10.7,10.7H87c-5.9,0-10.7,4.8-10.7,10.7v6c0,4.5,2.8,8.3,6.7,9.9h27.4
		c6.1,0,11,5,11,11v6.2c0,6.5-5.1,11-11,11h-5.6c-5.9,0-10.7,4.8-10.7,10.7v6c0,5.9,4.8,10.7,10.7,10.7h16.5
		c15.4,32.7,48.6,55.4,87.2,55.4c21.1,0,39.7-6.1,55.5-17.6c3.8-2.8,37.1,11.9,40.5,8.6l-58.8-38.7c-10.3,7.9-23.2,12.6-37.2,12.6
		c-18,0-34.2-7.8-45.4-20.2c-3.4-3.8-6.3-8-8.7-12.5h6.6h50.9l9.4-14.2l9.4-14.2l-9.4-14.2l-9.4-14.2h-50.9h-6.6
		c2.5-4.8,5.6-9.1,9.2-13.1c11.2-12.1,27.2-19.7,44.9-19.7c21.8,0,40.9,11.4,51.7,28.5c5.9,9.4,9.4,20.6,9.4,32.6
		c0,8.2-1.6,16-4.5,23.2l61.2,45.7C327.8,169.4,298.7,136.8,300,133.3z"/>
</g>
</svg>
